<svg xmlns="http://www.w3.org/2000/svg" xmlns:xlink="http://www.w3.org/1999/xlink" version="1.1" width="1000" height="1000" viewBox="0 0 1000 1000" xml:space="preserve">
<desc>Created with Fabric.js 3.5.0</desc>
<defs>
</defs>
<rect x="0" y="0" width="100%" height="100%" fill="#ffffff"/>
<g transform="matrix(2.3119 0 0 2.3119 467.2545 521.6003)" id="79826">
<g style="" vector-effect="non-scaling-stroke">
		<g transform="matrix(1 0 0 1 -40.324 0)">
<path style="stroke: none; stroke-width: 1; stroke-dasharray: none; stroke-linecap: butt; stroke-dashoffset: 0; stroke-linejoin: miter; stroke-miterlimit: 4; is-custom-font: none; font-file-url: none; fill: rgb(224,32,65); fill-rule: nonzero; opacity: 1;" transform=" translate(-84.676, -53)" d="M 93.93 94.2987 H 76.8668 L 87.1185 59.4013 H 78.4493 L 64.2071 106 H 47.1439 L 75.3532 11.6325 H 92.4163 L 82.7839 44.7403 H 91.4531 L 105.145 0 H 122.208 L 93.93 94.2987 Z" stroke-linecap="round"/>
</g>
		<g transform="matrix(1 0 0 1 2.6779 -0.0688)">
<path style="stroke: none; stroke-width: 1; stroke-dasharray: none; stroke-linecap: butt; stroke-dashoffset: 0; stroke-linejoin: miter; stroke-miterlimit: 4; is-custom-font: none; font-file-url: none; fill: rgb(224,32,65); fill-rule: nonzero; opacity: 1;" transform=" translate(-127.6779, -52.9312)" d="M 123.584 11.6325 H 156.128 L 151.243 26.5 H 136.45 L 131.084 44.6714 H 145.945 L 141.267 59.3325 H 126.749 L 121.038 78.5364 H 136.863 L 131.152 94.2299 H 99.2278 L 123.584 11.6325 Z" stroke-linecap="round"/>
</g>
		<g transform="matrix(1 0 0 1 42.7948 5.8163)">
<path style="stroke: none; stroke-width: 1; stroke-dasharray: none; stroke-linecap: butt; stroke-dashoffset: 0; stroke-linejoin: miter; stroke-miterlimit: 4; is-custom-font: none; font-file-url: none; fill: rgb(224,32,65); fill-rule: nonzero; opacity: 1;" transform=" translate(-167.7948, -58.8163)" d="M 151.312 106 H 134.111 L 161.563 11.6325 H 192.8 C 196.515 11.6325 198.992 12.6649 200.299 14.7987 C 201.607 16.9325 201.813 19.3416 200.988 22.0948 L 192.731 50.1779 C 192.318 51.4169 191.561 52.5182 190.392 53.5507 C 189.222 54.5831 187.571 55.0649 185.438 55.0649 C 186.745 55.2714 187.846 56.0974 188.741 57.5429 C 189.635 58.9883 189.635 61.1909 188.741 64.1507 L 179.865 94.2987 H 162.733 L 172.228 61.8792 C 172.434 61.1909 172.503 60.5714 172.297 59.952 C 172.09 59.3325 171.471 59.0571 170.439 59.0571 H 164.728 L 151.312 106 Z M 174.154 46.874 C 174.98 46.874 175.737 46.6675 176.494 46.2546 C 177.182 45.8416 177.732 45.0156 178.145 43.7078 L 182.686 28.3584 C 183.374 26.087 182.479 24.9169 180.071 24.9169 H 174.705 L 168.237 46.874 H 174.154 Z" stroke-linecap="round"/>
</g>
		<g transform="matrix(1 0 0 1 94.1293 -0.0344)">
<path style="stroke: none; stroke-width: 1; stroke-dasharray: none; stroke-linecap: butt; stroke-dashoffset: 0; stroke-linejoin: miter; stroke-miterlimit: 4; is-custom-font: none; font-file-url: none; fill: rgb(224,32,65); fill-rule: nonzero; opacity: 1;" transform=" translate(-219.1293, -52.9656)" d="M 242.957 11.6325 C 245.641 11.6325 247.567 12.5961 248.806 14.5234 C 250.044 16.4507 250.319 18.6533 249.631 21.0623 L 230.642 85.5572 C 229.61 88.9987 227.821 91.2701 225.344 92.5091 C 222.867 93.7481 220.184 94.2987 217.363 94.2987 H 196.997 C 195.552 94.2987 194.245 94.0234 193.006 93.5416 C 191.768 93.0598 190.805 92.3026 189.979 91.339 C 189.153 90.3753 188.672 89.1364 188.397 87.7598 C 188.121 86.3831 188.259 84.8 188.809 83.0104 L 207.455 19.6857 C 208.074 17.2766 209.313 15.2805 211.17 13.8351 C 213.028 12.3896 215.367 11.6325 218.188 11.6325 H 242.957 Z M 225.069 24.9169 C 224.243 24.9169 223.624 25.1234 223.28 25.4675 C 222.867 25.8805 222.661 26.3623 222.454 26.913 L 207.249 78.3987 C 206.836 79.7753 207.386 80.4637 208.831 80.4637 H 213.235 C 214.679 80.4637 215.574 79.7753 215.987 78.3987 L 231.123 26.9818 C 231.467 25.5364 230.917 24.8481 229.403 24.8481 H 225.069 V 24.9169 Z" stroke-linecap="round"/>
</g>
		<g transform="matrix(1 0 0 1 -90.8255 -17.5175)">
<path style="stroke: none; stroke-width: 1; stroke-dasharray: none; stroke-linecap: butt; stroke-dashoffset: 0; stroke-linejoin: miter; stroke-miterlimit: 4; is-custom-font: none; font-file-url: none; fill: rgb(65,65,77); fill-rule: nonzero; opacity: 1;" transform=" translate(-34.1745, -35.4825)" d="M 31.443 20.6494 H 42.5203 C 43.9652 20.6494 44.8596 21.0624 45.2724 21.8195 C 45.6853 22.5766 45.7541 23.4714 45.4788 24.5727 L 42.8643 33.5208 C 42.7267 34.0714 42.3827 34.5533 41.8323 34.9663 C 41.2819 35.4481 40.4562 35.5857 39.4242 35.5857 C 39.9746 35.5857 40.3874 35.7234 40.6626 35.9299 C 41.0067 36.1364 41.2131 36.4117 41.3507 36.7559 C 41.4883 37.1 41.5571 37.4442 41.5571 37.8572 C 41.5571 38.2701 41.4883 38.6831 41.4195 39.0273 L 38.9426 47.2182 C 38.6673 48.1818 38.1169 48.939 37.4289 49.4896 C 36.7409 50.0403 35.64 50.3156 34.3328 50.3156 H 22.705 L 31.443 20.6494 Z M 32.5439 45.4286 C 32.8191 45.4286 33.0943 45.3598 33.3007 45.2909 C 33.5071 45.1533 33.7135 44.8779 33.8511 44.465 L 35.64 38.4766 C 35.7776 38.0637 35.7776 37.7883 35.64 37.513 C 35.5024 37.2377 35.2272 37.1688 34.8144 37.1688 H 32.8879 L 30.411 45.4974 H 32.5439 V 45.4286 Z M 35.9152 33.1766 C 36.328 33.1766 36.6721 33.1078 36.8785 32.9701 C 37.0849 32.8325 37.2913 32.5572 37.4289 32.0753 L 39.0114 26.7065 C 39.149 26.2935 39.149 26.0182 39.0802 25.8117 C 38.9426 25.6052 38.6673 25.4675 38.2545 25.4675 H 36.2592 L 33.9887 33.1766 H 35.9152 Z" stroke-linecap="round"/>
</g>
		<g transform="matrix(1 0 0 1 -74.7396 -17.4831)">
<path style="stroke: none; stroke-width: 1; stroke-dasharray: none; stroke-linecap: butt; stroke-dashoffset: 0; stroke-linejoin: miter; stroke-miterlimit: 4; is-custom-font: none; font-file-url: none; fill: rgb(65,65,77); fill-rule: nonzero; opacity: 1;" transform=" translate(-50.2604, -35.5169)" d="M 48.7812 20.6494 H 60.4777 L 58.8952 26.0182 H 53.391 L 51.4645 32.5572 H 56.8311 L 55.2487 37.8572 H 49.882 L 47.8179 44.7403 H 53.5286 L 51.4645 50.3844 H 40.0432 L 48.7812 20.6494 Z" stroke-linecap="round"/>
</g>
		<g transform="matrix(1 0 0 1 -115.5052 17.3454)">
<path style="stroke: none; stroke-width: 1; stroke-dasharray: none; stroke-linecap: butt; stroke-dashoffset: 0; stroke-linejoin: miter; stroke-miterlimit: 4; is-custom-font: none; font-file-url: none; fill: rgb(65,65,77); fill-rule: nonzero; opacity: 1;" transform=" translate(-9.4948, -70.3454)" d="M 18.9897 55.5468 L 17.4072 60.9156 H 13.2102 L 6.12347 85.213 H 0 L 7.22432 60.8468 H 2.95853 L 4.541 55.4779 H 18.9897 V 55.5468 Z" stroke-linecap="round"/>
</g>
		<g transform="matrix(1 0 0 1 -101.022 17.3799)">
<path style="stroke: none; stroke-width: 1; stroke-dasharray: none; stroke-linecap: butt; stroke-dashoffset: 0; stroke-linejoin: miter; stroke-miterlimit: 4; is-custom-font: none; font-file-url: none; fill: rgb(65,65,77); fill-rule: nonzero; opacity: 1;" transform=" translate(-23.9779, -70.3799)" d="M 27.3149 85.213 H 21.1915 L 24.838 72.6858 H 21.7419 L 18.0265 85.213 H 11.903 L 20.641 55.5468 H 26.7645 L 23.3244 67.4546 H 26.4205 L 29.9295 55.5468 H 36.0529 L 27.3149 85.213 Z" stroke-linecap="round"/>
</g>
		<g transform="matrix(1 0 0 1 -85.5413 17.4143)">
<path style="stroke: none; stroke-width: 1; stroke-dasharray: none; stroke-linecap: butt; stroke-dashoffset: 0; stroke-linejoin: miter; stroke-miterlimit: 4; is-custom-font: none; font-file-url: none; fill: rgb(65,65,77); fill-rule: nonzero; opacity: 1;" transform=" translate(-39.4586, -70.4143)" d="M 37.9794 55.5468 H 49.6759 L 48.0934 60.9156 H 42.5892 L 40.6627 67.4546 H 46.0293 L 44.4469 72.7546 H 39.0802 L 37.0161 79.6377 H 42.7268 L 40.6627 85.2819 H 29.2414 L 37.9794 55.5468 Z" stroke-linecap="round"/>
</g>
</g>
</g>
<g transform="matrix(1.0172 0 0 0.8219 484.1038 267.8207)" id="593850">
	<image style="stroke: none; stroke-width: 0; stroke-dasharray: none; stroke-linecap: butt; stroke-dashoffset: 0; stroke-linejoin: miter; stroke-miterlimit: 4; is-custom-font: none; font-file-url: none; fill: rgb(0,0,0); fill-rule: nonzero; opacity: 1;" vector-effect="non-scaling-stroke" xlink:href="https://cdn.pixelied.com/user-assets/13c5a80c-565f-410a-8c37-05feaf5af0ae.jpg" x="-186.5" y="-166" width="373" height="332"/>
</g>
</svg>